<svg xmlns:dc="http://purl.org/dc/elements/1.1/" xmlns:cc="http://creativecommons.org/ns#" xmlns:rdf="http://www.w3.org/1999/02/22-rdf-syntax-ns#" xmlns:svg="http://www.w3.org/2000/svg" xmlns="http://www.w3.org/2000/svg" xmlns:sodipodi="http://sodipodi.sourceforge.net/DTD/sodipodi-0.dtd" xmlns:inkscape="http://www.inkscape.org/namespaces/inkscape" viewBox="0 0 100 100" version="1.1" x="0px" y="0px">
    <g transform="translate(0,-952.36216)">
        <path style="color:#000000;font-style:normal;font-variant:normal;font-weight:normal;font-stretch:normal;font-size:medium;line-height:normal;font-family:sans-serif;text-indent:0;text-align:start;text-decoration:none;
        text-decoration-line:none;text-decoration-style:solid;
        text-decoration-color:#000000;letter-spacing:normal;
        word-spacing:normal;text-transform:none;
        direction:ltr;block-progression:tb;
        writing-mode:lr-tb;baseline-shift:baseline;text-anchor:start;
        white-space:normal;clip-rule:nonzero;display:inline;
        overflow:visible;visibility:visible;opacity:1;
        isolation:auto;mix-blend-mode:normal;color-interpolation:sRGB;
        color-interpolation-filters:linearRGB;solid-color:#000000;
        solid-opacity:1;fill:#18C307;fill-opacity:1;fill-rule:nonzero;
        stroke:none;stroke-width:4;stroke-linecap:butt;stroke-linejoin:miter;
        stroke-miterlimit:4;stroke-dasharray:none;stroke-dashoffset:0;
        stroke-opacity:1;color-rendering:auto;image-rendering:auto;
        shape-rendering:auto;text-rendering:auto;enable-background:accumulate"
              d="m 50.000005,962.86021 c -21.79261,0 -39.50195,17.7093 -39.50196,39.50189 1e-5,21.7926 17.70935,39.502 39.50196,39.502 21.79261,0 39.50194,-17.7094 39.50195,-39.502 -10e-6,-21.79259 -17.70934,-39.50189 -39.50195,-39.50189 z m 0,4 c 19.63085,0 35.50194,15.8711 35.50195,35.50189 -10e-6,19.6309 -15.8711,35.502 -35.50195,35.502 -19.63085,0 -35.50195,-15.8711 -35.50196,-35.502 1e-5,-19.63079 15.87111,-35.50189 35.50196,-35.50189 z m 18.26757,20.6406 a 2.0002,2.0002 0 0 0 -1.54882,0.6641 l -21.06641,22.83199 -10.67383,-9.7305 a 2.0002,2.0002 0 1 0 -2.69336,2.9551 l 12.14258,11.0723 a 2.0002,2.0002 0 0 0 2.81641,-0.1231 l 22.41406,-24.29289 a 2.0002,2.0002 0 0 0 -1.39063,-3.377 z"/></g></svg>